<?xml version="1.0" encoding="utf-8"?>
<svg version="1.0" width="1024.000000pt" height="1024.000000pt" viewBox="0 0 1024.000000 1024.000000" preserveAspectRatio="xMidYMid meet" xmlns="http://www.w3.org/2000/svg">
  <defs/>
  <g transform="translate(0.000000,1024.000000) scale(0.100000,-0.100000)" fill="#000000" stroke="none">
    <path d="M 5214.244 6136.035 C 5170.244 6109.035 5062.244 5990.035 4995.244 5895.035 C 4930.244 5804.035 4932.244 5806.035 4872.244 5696.035 L 4832.244 5621.035 L 4798.933 5607.422 C 4165.357 5603.791 4004.103 5601.539 3740.82 5507.949 C 3733.593 5505.38 3716.169 5544.485 3699.579 5568.445 C 3646.382 5645.276 3557.219 5630.808 3549.441 5627.826 C 3537.559 5623.271 3578.222 5459.268 3566.208 5454.422 C 3547.291 5446.811 3522.937 5438.598 3503.887 5429.906 C 3352.743 5360.942 3203.441 5261.803 3151.933 5193.422 C 3117.933 5149.422 3117.933 5148.422 3121.933 5058.422 C 3126.933 4974.422 3129.933 4962.422 3175.933 4873.422 C 3212.933 4801.422 3229.933 4777.422 3246.933 4775.422 C 3273.933 4771.422 3283.933 4791.422 3305.933 4897.422 C 3338.933 5055.422 3448.933 5200.422 3586.933 5269.422 C 3640.933 5296.422 3652.933 5298.422 3764.933 5298.422 C 3875.933 5298.422 3888.933 5296.422 3934.933 5271.422 C 4079.933 5193.422 4186.933 5017.422 4212.933 4812.422 C 4217.933 4768.422 4233.933 4737.422 4255.933 4729.422 C 4263.933 4726.422 4677.933 4723.422 5174.933 4723.422 C 6222.933 4723.422 6101.933 4706.422 6139.933 4855.422 C 6195.933 5076.422 6294.933 5214.422 6448.933 5291.422 C 6514.933 5323.422 6534.933 5328.422 6609.933 5331.422 C 6688.933 5335.422 6701.933 5332.422 6760.933 5305.422 C 6858.933 5260.422 6942.933 5171.422 7008.933 5043.422 C 7054.933 4953.422 7055.933 4953.422 7113.933 4953.422 C 7157.933 4953.422 7169.933 4957.422 7191.933 4981.422 C 7226.933 5017.422 7239.933 5070.422 7239.933 5173.422 C 7239.933 5303.422 7178.933 5453.422 7088.933 5545.422 C 7036.933 5598.422 6897.933 5682.422 6839.933 5695.422 C 6825.933 5699.422 6805.933 5704.422 6794.933 5707.422 C 6747.933 5721.422 6647.933 5744.422 6617.933 5748.422 C 6306.933 5793.422 6060.933 5788.422 5897.933 5732.422 C 5846.933 5714.422 5741.995 5684.809 5739.995 5679.809 C 5737.995 5675.809 5793.933 5683.422 5788.933 5683.422 C 5783.933 5683.422 5717.995 5718.809 5717.995 5776.809 C 5717.995 5856.809 5713.995 5888.809 5701.995 5906.809 C 5681.995 5937.809 5626.253 5936.937 5610.253 5908.937 C 5605.253 5897.937 5600.253 5832.937 5600.253 5764.937 C 5600.253 5646.937 5359.244 5667.035 5339.244 5662.035 C 5310.244 5654.035 5293.244 5663.035 5286.244 5688.035 C 5283.244 5700.035 5280.244 5805.035 5280.244 5922.035 C 5280.244 6117.035 5279.244 6135.035 5262.244 6144.035 C 5248.244 6151.035 5236.244 6149.035 5214.244 6136.035 Z M 5211.244 5643.035 C 5208.244 5639.035 5145.244 5633.035 5072.244 5629.035 C 4958.244 5623.035 4940.244 5624.035 4940.244 5637.035 C 4940.244 5652.035 5040.244 5817.035 5070.244 5852.035 C 5078.244 5862.035 5102.244 5894.035 5123.244 5923.035 C 5145.244 5951.035 5172.244 5982.035 5183.244 5990.035 L 5205.244 6005.035 L 5211.244 5828.035 C 5214.244 5730.035 5214.244 5647.035 5211.244 5643.035 Z M 6454.933 5683.422 C 6729.933 5665.422 6943.933 5589.422 7042.933 5472.422 C 7079.933 5429.422 7125.933 5341.422 7146.933 5274.422 C 7171.933 5189.422 7158.933 5047.422 7124.933 5037.422 C 7119.933 5035.422 7095.933 5067.422 7071.933 5108.422 C 6983.933 5259.422 6880.933 5350.422 6752.933 5389.422 C 6680.933 5411.422 6656.933 5414.422 6595.933 5408.422 C 6499.933 5399.422 6432.933 5379.422 6373.933 5341.422 C 6222.933 5246.422 6148.933 5146.422 6073.933 4941.422 L 6056.933 4893.422 L 5170.933 4893.422 L 4283.933 4893.422 L 4270.933 4946.422 C 4222.933 5134.422 4073.933 5312.422 3922.933 5362.422 C 3839.933 5389.422 3692.933 5390.422 3614.933 5363.422 C 3540.933 5337.422 3449.933 5280.422 3384.933 5218.422 C 3347.933 5182.422 3269.933 5067.422 3269.933 5047.422 C 3269.933 5039.422 3265.933 5025.422 3259.933 5015.422 C 3254.933 5006.422 3244.933 4985.422 3238.933 4968.422 L 3227.933 4938.422 L 3214.933 4975.422 C 3206.933 4995.422 3197.933 5032.422 3194.933 5057.422 C 3188.933 5096.422 3191.933 5107.422 3218.933 5147.422 C 3238.933 5176.422 3279.933 5211.422 3332.933 5246.422 C 3410.933 5297.422 3570.933 5381.422 3600.933 5387.422 C 3608.933 5389.422 3622.933 5393.422 3631.933 5397.422 C 3640.933 5401.422 3653.933 5406.422 3661.933 5407.422 C 3668.933 5409.422 3683.933 5413.422 3694.933 5417.422 C 3771.933 5446.422 3874.933 5471.422 3943.933 5478.422 C 3970.933 5481.422 4017.933 5487.422 4048.933 5492.422 C 4128.933 5504.422 4102.933 5503.422 4697.933 5509.422 C 5039.933 5512.422 5239.933 5518.422 5239.933 5524.422 C 5239.933 5530.422 5258.933 5534.422 5282.933 5533.422 C 5325.933 5533.422 5461.933 5546.422 5534.933 5558.422 C 5556.933 5561.422 5617.933 5571.422 5669.933 5580.422 C 5721.933 5588.422 5787.933 5603.422 5814.933 5613.422 C 5859.933 5630.422 5924.933 5653.422 6004.933 5680.422 C 6042.933 5694.422 6273.933 5695.422 6454.933 5683.422 Z"/>
    <path d="M 5522.933 5505.422 C 5483.845 5487.613 5459.933 5439.422 5459.933 5404.422 C 5459.933 5304.422 5498.933 5273.422 5622.933 5273.422 C 5744.933 5273.422 5796.933 5305.422 5800.933 5383.422 C 5803.933 5448.422 5793.933 5470.422 5745.933 5498.422 C 5709.933 5519.422 5690.933 5523.422 5628.933 5522.422 C 5579.933 5522.422 5544.506 5515.251 5522.933 5505.422 Z M 5699.933 5431.422 C 5710.933 5419.422 5714.243 5404.422 5714.243 5398.422 C 5714.243 5392.422 5710.933 5377.422 5699.933 5365.422 C 5661.933 5325.422 5549.933 5342.422 5549.933 5388.422 C 5549.933 5395.422 5546.654 5415.358 5558.654 5430.358 C 5585.654 5465.358 5668.933 5464.422 5699.933 5431.422 Z"/>
    <path d="M 3673.933 5203.422 C 3549.933 5177.422 3439.933 5095.422 3388.933 4991.422 C 3336.933 4886.422 3331.933 4868.422 3331.933 4788.422 C 3331.933 4680.422 3361.933 4605.422 3439.933 4521.422 C 3577.933 4372.422 3748.933 4337.422 3929.933 4421.422 C 3999.933 4454.422 4069.933 4527.422 4112.933 4613.422 C 4142.933 4674.422 4144.933 4684.422 4144.933 4783.422 C 4143.933 4927.422 4122.933 4979.422 4026.933 5077.422 C 3965.933 5138.422 3943.933 5153.422 3882.933 5176.422 C 3799.933 5206.422 3731.933 5215.422 3673.933 5203.422 Z M 3864.933 5036.422 C 3922.933 5004.422 3992.933 4925.422 4007.933 4875.422 C 4053.933 4723.422 3964.933 4577.422 3797.933 4533.422 C 3691.933 4505.422 3557.933 4570.422 3492.933 4681.422 C 3427.933 4792.422 3476.933 4960.422 3595.933 5029.422 C 3691.933 5086.422 3772.933 5088.422 3864.933 5036.422 Z"/>
    <path d="M 6493.933 5194.422 C 6338.933 5150.422 6236.933 5041.422 6193.933 4873.422 C 6163.933 4754.422 6205.933 4609.422 6298.933 4513.422 C 6349.933 4460.422 6413.933 4417.422 6456.933 4407.422 C 6471.933 4403.422 6489.933 4397.422 6494.933 4393.422 C 6515.933 4378.422 6608.933 4373.422 6660.933 4384.422 C 6744.933 4402.422 6817.933 4442.422 6879.933 4503.422 C 6928.933 4551.422 7000.933 4663.422 6983.933 4663.422 C 6979.933 4663.422 6983.933 4670.422 6990.933 4680.422 C 7000.933 4691.422 7004.933 4725.422 7003.933 4797.422 C 7003.933 4888.422 7000.933 4904.422 6972.933 4963.422 C 6916.933 5082.422 6831.933 5157.422 6708.933 5193.422 C 6628.933 5217.422 6574.933 5217.422 6493.933 5194.422 Z M 6712.933 5046.422 C 6778.933 5016.422 6821.933 4972.422 6855.933 4899.422 C 6930.933 4739.422 6806.933 4549.422 6613.933 4528.422 C 6559.933 4522.422 6548.933 4524.422 6482.933 4558.422 C 6381.933 4608.422 6331.933 4674.422 6318.933 4772.422 C 6301.933 4894.422 6388.933 5016.422 6529.933 5066.422 C 6585.933 5086.422 6635.933 5081.422 6712.933 5046.422 Z"/>
  </g>
</svg>